<?xml version="1.0" standalone="no"?><!DOCTYPE svg PUBLIC "-//W3C//DTD SVG 1.1//EN" "http://www.w3.org/Graphics/SVG/1.1/DTD/svg11.dtd"><svg class="icon" width="32px" height="26.64px" viewBox="0 0 1230 1024" version="1.1" xmlns="http://www.w3.org/2000/svg"><path fill="#cdcdcd" d="M1178.62604 1023.775533a51.078688 51.078688 0 0 1-51.078688-51.053747l-0.448933-4.763686c0-1.421624 0.299289-2.768425 0.423993-4.190049a358.074573 358.074573 0 0 0-205.137798-315.725153c-4.514279-6.384836-9.377728-12.470383-14.141414-18.655693a70.332959 70.332959 0 0 1-87.29268-68.886394l-0.64846-6.584363a71.031301 71.031301 0 0 1 1.446564-14.291058c-1.147275-0.947749-2.219728-2.020202-3.391944-2.967951l6.235192-6.235192a70.756952 70.756952 0 0 1 43.222346-43.197406l3.865819-3.865819a203.965582 203.965582 0 0 0-52.375608-373.887018c-1.820676-3.26724-4.140167-6.18531-6.060606-9.377728a48.235441 48.235441 0 0 1-69.684499-43.496695l-0.423993-4.489338A48.434967 48.434967 0 0 1 789.425392 3.79798l2.29455-2.294551a307.145529 307.145529 0 0 1 169.846615 546.202769c0.199526 2.070084 0.623519 4.065345 0.623519 6.160369a460.032423 460.032423 0 0 1 266.267614 407.108118 49.457538 49.457538 0 0 1 0.723282 6.958474l0.448934 4.763686a51.078688 51.078688 0 0 1-51.003866 51.078688z m-527.746601-472.30328a460.107245 460.107245 0 0 1 271.180945 409.527373 49.881531 49.881531 0 0 1 0.723282 6.958474l0.448934 4.763686a51.12857 51.12857 0 0 1-102.257139 0l-0.448934-4.763686c0-1.222098 0.274348-2.369373 0.34917-3.56653a358.398803 358.398803 0 0 0-329.218107-349.719416c-9.652076 0.897868-19.428856 1.471505-29.33034 1.471505s-19.678264-0.573638-29.33034-1.471505A358.598329 358.598329 0 0 0 103.504454 971.89874v0.199527H102.70635v0.623519a51.12857 51.12857 0 0 1-102.25714 0l-0.448933-4.763686a50.679636 50.679636 0 0 1 1.671031-12.470383 460.231949 460.231949 0 0 1 271.854346-404.514279 307.968575 307.968575 0 1 1 377.353785 0.498815zM461.628909 102.737997a204.813568 204.813568 0 1 0 204.863449 204.813568 204.863449 204.863449 0 0 0-204.863449-204.813568z"  /></svg>