<?xml version="1.0" standalone="no"?><!DOCTYPE svg PUBLIC "-//W3C//DTD SVG 1.1//EN" "http://www.w3.org/Graphics/SVG/1.1/DTD/svg11.dtd"><svg class="icon" width="32px" height="32.00px" viewBox="0 0 1024 1024" version="1.1" xmlns="http://www.w3.org/2000/svg"><path fill="#cdcdcd" d="M703.804421 621.750613l-154.662499-89.464591L549.141922 288.302195c0-20.587897-16.696264-37.293371-37.286208-37.293371-20.576641 0-37.275975 16.699334-37.275975 37.293371L474.579739 549.375236c0 13.8351 17.191544 25.437345 28.373211 31.850405 3.094478 4.652973 11.595083 8.876158 16.780175 11.859096l153.805992 93.246731c17.817808 10.286274 37.131689 4.167926 47.420009-13.649881C731.249493 654.839219 721.667254 632.052237 703.804421 621.750613zM826.872341 195.571211c-84.525092-84.486206-196.85546-131.039475-316.403207-131.039475-119.508861 0-231.858672 46.554292-316.343855 131.055848-84.518952 84.525092-131.058918 196.935278-131.058918 316.487118C63.041802 631.650077 109.549022 744.017284 194.056718 828.602751c84.473927 84.450391 196.836017 131.008776 316.330552 131.008776 119.547747 0 231.948723-46.584991 316.485071-131.097804C1001.281579 654.038994 1001.314325 370.122689 826.872341 195.571211zM785.640264 787.266297c-73.522504 73.528644-171.273828 114.062825-275.254018 114.062825-103.907535 0-201.635323-40.514739-275.110755-113.972774-73.468269-73.512271-113.928772-171.277922-113.907283-275.28267 0-103.993492 40.473807-201.768353 113.967658-275.251971 73.489758-73.494874 171.183777-113.959471 275.132244-113.959471 103.954607 0 201.667046 40.464597 275.17113 113.963565C937.331082 388.596436 937.331082 635.55092 785.640264 787.266297z" /></svg>