<?xml version="1.0" standalone="no"?><!DOCTYPE svg PUBLIC "-//W3C//DTD SVG 1.1//EN" "http://www.w3.org/Graphics/SVG/1.1/DTD/svg11.dtd"><svg t="1554631995524" class="icon" style="" viewBox="0 0 1024 1024" version="1.1" xmlns="http://www.w3.org/2000/svg" p-id="3861" xmlns:xlink="http://www.w3.org/1999/xlink" width="32" height="32"><defs><style type="text/css"></style></defs><path d="M204.373 872.533a34.133 34.133 0 0 1-48.213-48.213l331.947-331.947a34.133 34.133 0 0 1 48.213 0L868.267 824.32a34.133 34.133 0 0 1-48.214 48.213L512 564.907z m0-341.333a34.133 34.133 0 0 1-48.213-48.213L488.107 151.04a34.133 34.133 0 0 1 48.213 0l331.947 331.947a34.133 34.133 0 0 1-48.214 48.213L512 223.573z" p-id="3862" fill="#bfbfbf"></path></svg>